<svg xmlns="http://www.w3.org/2000/svg" width="72.75" height="103.569"><path fill="#50e3c2" d="M0 0v88.659l36.376 14.91L72.52 88.606l.23-.096V0H0zm60.415 36.315a3.485 3.485 0 0 1-2.481 1.027 3.483 3.483 0 0 1-2.48-1.027 27.492 27.492 0 0 1-.152-.169c-.047-.06-.143-.136-.178-.217a28.12 28.12 0 0 1-.163-.272l-.138-.381c-.02-.143-.053-.294-.062-.454.019-.157-.012-.331.043-.493a1.77 1.77 0 0 1 .162-.491 1.73 1.73 0 0 1 .273-.446c.09-.143.234-.262.368-.348.263-.17.597-.245.862-.208.159.014.289.053.4.098-.027-.007-.048-.015-.077-.024a.503.503 0 0 0-.298-.016c-.111.014-.24.025-.322.09l-.145.08c-.032.021-.033.009-.09.058l-.064.066c-.086.087-.174.18-.233.293-.075.104-.12.225-.163.345-.053.118-.053.247-.079.368-.021.248.019.48.077.677l.125.274c.04.088.074.117.104.165l.09.131c.009.013.02.027.031.038.005.005.014.003.019.008a2.648 2.648 0 0 0 3.725-.024l.001-.004.006-.002a4.114 4.114 0 0 0-.001-5.812h-.001c-2.52-2.519-6.531-2.521-9.135-.004-.811.776-.998.806-1.656.806h-.001c-.34 0-.755-.16-1.144-.399.438-.678.979-1.219.984-1.225a8.197 8.197 0 0 1 5.68-2.32h.031c2.125 0 4.116.823 5.611 2.319l.045-.044-.045.044a4.93 4.93 0 0 1 0 6.964l-.156.132c-.107.074-.234.23-.432.328-.098.053-.203.109-.313.17-.106.072-.245.09-.376.138-.134.037-.268.099-.416.102l-.443.048-.445-.037c-.15 0-.285-.058-.422-.091-.133-.044-.273-.06-.383-.13l-.325-.166c-.206-.097-.332-.246-.442-.318l-.162-.129s.059.048.159.133c.108.075.231.229.435.331l.324.175c.109.074.25.093.383.142.137.038.274.1.426.104l.453.049.453-.038c.152 0 .292-.059.432-.093.135-.045.277-.061.391-.133l.334-.171c.213-.102.336-.248.446-.321l.163-.129-.064-.079.072.072a5.057 5.057 0 0 0 0-7.141h-.001a8 8 0 0 0-5.7-2.355h-.031v.062-.062a8.327 8.327 0 0 0-5.767 2.355c-.006.006-.556.554-1 1.242a3.143 3.143 0 0 1-.75-.667l-.097-.136c-.4-.604-.172-.944.044-1.151h.001a9.909 9.909 0 0 1 6.857-2.798c.014.005.035 0 .053 0a9.502 9.502 0 0 1 6.772 2.795 5.827 5.827 0 0 1 1.718 4.146 5.843 5.843 0 0 1-1.72 4.15zm-9.162-5.205l-.625.005.281.525c.286.655.431 1.349.431 2.065 0 .631-.113 1.249-.335 1.833-.004.011-.003.022-.005.032l-.799 2.343-.006.018-1.416 4.153c-1.588.934-3.654.93-5.227-.005l-2.221-6.528c0-.002-.002-.003-.003-.005l-.001-.007a5.127 5.127 0 0 1-.335-1.833c0-.716.146-1.41.431-2.065l.281-.53h-5.156a2.406 2.406 0 0 1 2.373-2.025c1.35 0 1.943.373 2.613 1.04.824.782 1.141.926 2.01.926.813 0 1.88-.594 2.48-1.381.057-.076.096-.146.141-.218.022.037.029.071.055.108.568.827 1.705 1.492 2.56 1.492h.001c.828 0 1.166-.114 2.029-.934.514-.513 1.227-1.032 2.601-1.032 1.196 0 2.192.879 2.373 2.025h-4.531zm10.159 24.566l3.584 1.484-18.291 7.496-20.658.002-18.291-7.497 5.828-2.415c.249.081.506.133.771.155a.36.36 0 0 0 .146.03h.156l11.221-.002a3.89 3.89 0 0 1 2.835 1.214l.11.116h4.719v-.375a6.547 6.547 0 0 0-3.521-5.799h9.029a5.817 5.817 0 0 1 5.812 5.811c0 .104.043.197.11.265l4.449 4.447.21-.531a11.298 11.298 0 0 0-.834-9.992h1.248a5.82 5.82 0 0 1 5.816 5.811v.375h5.561v-.375c0-.073-.008-.146-.01-.22zm3.99 10.071l-7.277 3.178 4.209-10.136 3.068-1.255v8.213zm-7.607 3.32l-3.155 1.379-.021-.01-.009.021-12.227 5.338 4.412-10.654 15.213-6.22-4.213 10.146zM46.052 85.141H36.5v-8.986l5.673.006 12.298-5.369-5.389 13.012.04.016-3.07 1.321zm-19.354 0l-3.073-1.324-5.433-13.064 12.358 5.396 5.699.006v8.986h-9.551zm15.366-9.23l-11.38-.002-4.45-10.75 20.282-.002-4.452 10.754zM25.902 65.139l.058.012 4.407 10.645-15.427-6.735-4.197-10.135 15.159 6.213zm-15.485-6.347l4.192 10.125-7.26-3.17v-8.213l3.068 1.258zM7.28 65.991l10.582 4.619 5.434 13.066L3.49 75.141l3.79-9.15zm3.564 12.592l4.021 9.705-7.153-2.918-4.102-9.905 7.234 3.118zm4.346 9.839l-4.017-9.697 15.402 6.635 3.842 9.277-15.227-6.215zm15.555 6.35l-3.89-9.391 19.035.01-3.886 9.381-5.63 2.297-5.629-2.297zm15.429-9.41l15.402-6.637-4.018 9.697-15.228 6.217 3.844-9.277zm15.732-6.779l7.234-3.117-4.102 9.904-7.153 2.92 4.021-9.707zm-12.511 5.119l5.407-13.055 10.669-4.656 3.791 9.15-19.867 8.561zM12.424 49.941l.1-.128c.143.01.273.034.424.034 1.541 0 2.795-1.253 2.795-2.793s-1.254-2.792-2.795-2.792a.375.375 0 0 0 0 .75c1.128 0 2.045.916 2.045 2.042s-.917 2.043-2.045 2.043c-1.153 0-2.021-.337-2.578-1.001-1.062-1.266-.712-3.344-.705-3.384.736-5.951 5.807-10.442 11.805-10.473.021.004.041.013.062.013 4.16 0 7.545 3.383 7.545 7.541 0 4.159-3.385 7.542-7.545 7.542a.375.375 0 0 0-.375.375l.002.005-.002.006c0 .207.168.374.375.374h.001L27 50.091c2.002 0 3.755 1.03 4.795 2.578l-2.756 2.759a4.624 4.624 0 0 0-3.162-1.249l-11.221.002a2.69 2.69 0 0 1-1.915-.794 2.692 2.692 0 0 1-.792-1.916 2.658 2.658 0 0 1 .475-1.53zM.75 15.197l30.529 12.644a6.457 6.457 0 0 0-1.527 5.661l-8.22-.016h-.001c-.873 0-1.725.097-2.553.266H.75V15.197zm45.565 12.397s-.001 0 0 0c-.007.006-.009.013-.015.019V.75h13.462L49.523 25.472a10.587 10.587 0 0 0-3.208 2.122zm-.264.029l-.026-.029h-.001a10.579 10.579 0 0 0-3.189-2.113L32.591.75h13.46v26.873zm-3.543-2.276a10.496 10.496 0 0 0-3.756-.718h-.053c-.5 0-.991.047-1.477.117L13.228.75H32.32l10.188 24.597zm-3.809-.119h.049a9.914 9.914 0 0 1 6.86 2.798c.245.236.461.594-.062 1.279-.195.257-.467.482-.754.674a8.347 8.347 0 0 0-1.002-1.242 8.315 8.315 0 0 0-5.766-2.355v.062-.062h-.031a8.003 8.003 0 0 0-5.7 2.355h-.001a5.057 5.057 0 0 0 0 7.141l.078-.077-.068.083.162.129c.111.073.234.22.445.321l.334.171c.114.072.256.088.393.133.139.035.277.093.43.093l.454.038.452-.049c.152-.003.289-.066.426-.104.134-.049.273-.067.384-.142l.323-.175c.203-.103.327-.256.435-.331l.159-.133-.162.129c-.11.072-.236.221-.441.318-.102.051-.21.106-.325.166-.11.07-.251.085-.384.13-.136.034-.271.092-.422.091l-.444.037-.443-.048c-.148-.003-.282-.065-.417-.102-.131-.048-.27-.066-.375-.138l-.313-.17c-.197-.098-.325-.254-.431-.328l-.16-.133a4.93 4.93 0 0 1 .002-6.962l-.045-.044.045.044a7.874 7.874 0 0 1 5.611-2.319h.031a8.2 8.2 0 0 1 5.679 2.319c.006.006.549.547.986 1.225-.39.24-.807.399-1.146.399-.662 0-.831-.027-1.645-.806-2.603-2.517-6.615-2.515-9.135.004h-.002a4.114 4.114 0 0 0 0 5.811l.006.002c.001.001 0 .002.002.003.501.501 1.168.778 1.877.778s1.375-.276 1.877-.778c.003-.003.002-.009.004-.012.004-.005.012-.004.016-.01l.09-.131c.029-.048.063-.077.104-.165l.126-.274c.059-.197.097-.429.077-.677-.025-.121-.025-.25-.079-.368a1.305 1.305 0 0 0-.163-.346 1.284 1.284 0 0 0-.234-.292l-.063-.066c-.058-.049-.058-.037-.09-.059l-.144-.08c-.084-.065-.213-.077-.323-.091a.495.495 0 0 0-.298.016c-.029.009-.049.017-.076.024.112-.046.24-.084.399-.098.267-.038.599.038.862.208.135.086.279.205.369.347.105.14.213.279.273.446.086.154.125.324.16.491.056.162.025.335.045.493-.01.159-.043.312-.062.454l-.139.382-.162.272c-.035.081-.131.157-.178.217l-.15.168h-.001a3.514 3.514 0 0 1-4.964 0 5.871 5.871 0 0 1-.001-8.293 9.522 9.522 0 0 1 6.776-2.791zm-5.92 30.281h-3.115l2.396-2.397c.398.722.664 1.529.719 2.397zm13.239.637h3.645a10.6 10.6 0 0 1-.531 3.112l-3.114-3.112zm10.947-.625l3.104-3.104c.347.985.559 2.027.598 3.104h-3.702zm-.397-.31c-.345-3.297-3.135-5.876-6.523-5.876h-1.736c-.12-.17-.24-.341-.37-.503a8.286 8.286 0 0 0 3.125-3.49c.333.01.921.104 1.309.186 3.447.768 6.211 3.228 7.503 6.376l-3.308 3.307zm-9.123-6.952c-1.537-1.696-3.574-2.944-5.908-3.464a.376.376 0 0 0-.163.732c4.727 1.053 8.171 5.285 8.287 10.118H45.6c-.133-3.501-3.016-6.311-6.551-6.311h-11.73c-.03 0-.058.011-.086.018-.078-.003-.154-.012-.232-.012l-2.057.001c2.875-1.303 4.883-4.193 4.883-7.549 0-3.356-2.01-6.247-4.886-7.55l5.02.01a6.426 6.426 0 0 0 1.54 2.486 4.098 4.098 0 0 0 2.906 1.202c1.052 0 2.104-.4 2.905-1.201.004-.004.002-.01.006-.014s.011-.004.015-.009l.152-.207c.047-.074.111-.127.17-.256.059-.121.123-.256.193-.404l.121-.484c.01-.176.029-.362.021-.551-.037-.187-.029-.388-.109-.572a2.077 2.077 0 0 0-.24-.543c-.09-.18-.225-.326-.355-.467a1.419 1.419 0 0 0-.447-.345 1.542 1.542 0 0 0-.513-.16 1.499 1.499 0 0 0-.468.019c-.582.114-.809.478-.816.453l.139-.077.156-.085c.063-.02.145-.019.225-.03a.396.396 0 0 1 .248.026c.084.025.17.028.254.115l.129.102c.014.012.064.047.046.04l.044.065c.061.085.12.171.152.271.048.092.065.194.084.292.027.096.006.198.014.289a1.391 1.391 0 0 1-.135.477l-.096.143c-.018.041-.082.092-.11.126l-.089.091-.002.001c-.387.388-.902.602-1.451.602s-1.064-.214-1.453-.602c-.001-.001-.004 0-.005-.002l-.001-.003a3.512 3.512 0 0 1 0-4.963c1.359-1.358 3.195-1.888 4.96-1.631a3.148 3.148 0 0 0-2.38 3.043v.375h4.768a5.892 5.892 0 0 0-.294 1.845c0 .716.128 1.416.379 2.082l.001.006 2.268 6.667c.002.008.011.012.014.02a.352.352 0 0 0 .113.15c.007.006.012.014.019.019.004.003.005.007.009.009a5.86 5.86 0 0 0 3.124.896 5.887 5.887 0 0 0 3.116-.89c.004-.003.006-.007.01-.009.008-.006.014-.014.021-.02a.374.374 0 0 0 .111-.149c.003-.008.012-.011.014-.02l1.168-3.426c.342.873.52 1.81.52 2.753a7.546 7.546 0 0 1-3.687 6.462zm13.394-20.661a10.062 10.062 0 0 0-5.401-2.807L72 8.229v14.814l-11.115 4.604c-.017-.015-.03-.033-.046-.049zm.223.247L72 23.315v10.437h-9.47a6.406 6.406 0 0 0-1.468-5.907zM72 7.876L55.236 24.639l.145.144a10.324 10.324 0 0 0-1.738-.155c-.014 0-.026.005-.039.006-.006 0-.01-.006-.015-.006h-.001a10.488 10.488 0 0 0-3.74.713L60.033.75H72v7.126zM12.874.75l24.04 24.04a10.06 10.06 0 0 0-5.415 2.808c-.015.015-.026.031-.041.045L.75 14.926V.75h12.124zm23.501 102.008L.75 88.157V34.002h17.209c-4.751 1.394-8.405 5.493-9.037 10.598-.018.1-.418 2.438.869 3.975.476.568 1.125.93 1.912 1.118a3.43 3.43 0 0 0 .508 4.223c.222.223.477.397.742.549l-6.103 2.53v8.73l-3.908 9.434L7.33 85.752 36.375 97.61l28.949-11.818.097-.039 4.388-10.594-3.906-9.434V56.995l-4.514-1.87c-.344-4.962-3.957-9.238-8.857-10.329a11.107 11.107 0 0 0-1.163-.188 8.256 8.256 0 0 0 .511-2.815 8.296 8.296 0 0 0-.92-3.78l.758-2.22c.005-.015.002-.031.006-.046a5.91 5.91 0 0 0 .072-3.887h4.769v-.375a3.148 3.148 0 0 0-2.38-3.043c1.767-.259 3.605.272 4.965 1.632h.001a3.515 3.515 0 0 1 .001 4.963c-.002.001-.001.002-.002.003-.002.001-.004 0-.005.002-.802.802-2.106.8-2.906 0h-.001l-.088-.092c-.029-.034-.094-.086-.111-.126l-.095-.143a1.437 1.437 0 0 1-.136-.477c.009-.091-.014-.193.016-.289.018-.098.035-.2.083-.292a1 1 0 0 1 .151-.271l.045-.065c-.02.009.032-.027.045-.039l.13-.102c.083-.086.17-.089.253-.114a.402.402 0 0 1 .25-.026c.08.012.16.011.225.03l.154.085.14.077c-.008.025-.233-.339-.815-.453a1.538 1.538 0 0 0-.469-.019 1.54 1.54 0 0 0-.512.161c-.165.085-.32.192-.447.345-.133.142-.268.288-.355.467-.114.167-.18.354-.24.543-.08.185-.072.385-.109.572-.008.189.01.375.021.551.043.172.083.334.122.484l.193.404c.059.128.123.182.17.256.098.131.152.207.152.207a.22.22 0 0 0 .02.023l.006.003a4.08 4.08 0 0 0 2.9 1.199 4.077 4.077 0 0 0 2.905-1.204A6.435 6.435 0 0 0 62.471 34H72v54.006l-35.625 14.752z"/></svg>
