<svg xmlns="http://www.w3.org/2000/svg" width="72.751" height="102.681"><g fill="#50e3c2"><path d="M.001.002L0 66.306c0 20.059 16.318 36.375 36.375 36.375S72.75 86.365 72.75 66.306V0L.001.002zM71.342 73.11l-10.323-2.054c.291-1.511.449-3.068.455-4.662h10.525a35.65 35.65 0 0 1-.657 6.716zm-2.026 6.747l-9.723-4.027a24.96 24.96 0 0 0 1.394-4.601l10.323 2.053a35.167 35.167 0 0 1-1.994 6.575zm-3.284 6.161l-8.748-5.846a25.046 25.046 0 0 0 2.245-4.18l9.723 4.027a35.555 35.555 0 0 1-3.22 5.999zm-47.333-1.911a25.367 25.367 0 0 0 3.664 3.015l-5.846 8.747a35.829 35.829 0 0 1-5.257-4.323l7.439-7.439zm3.811 3.108a24.973 24.973 0 0 0 4.18 2.245l-4.027 9.723a35.593 35.593 0 0 1-5.999-3.22l5.846-8.748zm4.343 2.31a24.826 24.826 0 0 0 4.54 1.383l-2.053 10.323a35.357 35.357 0 0 1-6.514-1.983l4.027-9.723zm4.712 1.414c1.53.298 3.108.46 4.723.465v10.525a35.603 35.603 0 0 1-6.776-.668l2.053-10.322zm4.898.465a25.186 25.186 0 0 0 4.723-.465l2.054 10.322a35.603 35.603 0 0 1-6.776.668V91.404zm4.894-.496a24.826 24.826 0 0 0 4.54-1.383l4.027 9.723a35.31 35.31 0 0 1-6.514 1.983l-2.053-10.323zm4.704-1.448a25.095 25.095 0 0 0 4.181-2.245l5.845 8.749a35.651 35.651 0 0 1-5.998 3.219l-4.028-9.723zm4.328-2.339a25.298 25.298 0 0 0 3.663-3.014l7.439 7.439a35.778 35.778 0 0 1-5.258 4.322l-5.844-8.747zm-14.014 3.785c-13.564 0-24.6-11.036-24.6-24.6.016-3.091.54-6.091 1.516-8.678 4.462-12.053 4.254-20.496 2.205-26.952l-.001-.003c-1.085-3.417-2.687-6.279-4.386-8.821-.399-.596-.276-1.385.311-1.855a1.356 1.356 0 0 1 1.033-.288c.382.05.72.25.951.563 10.346 14.039 7.787 26.281 5.73 36.119-.005.023.011.042.012.065.001.025-.011.049-.002.074.004.01.015.012.02.021.015.031.04.048.066.07.024.02.042.039.071.049.01.004.015.015.025.018.027.004.049-.012.075-.015.022-.002.043.01.065.001a10.564 10.564 0 0 1 4.29-.683c-3.421 1.716-5.679 4.851-5.968 8.371v.001a20.66 20.66 0 0 0-.065 1.948c.075 4.612 2.068 8.572 5.765 11.454 3.418 2.664 7.995 4.133 12.888 4.133 4.892 0 9.469-1.469 12.887-4.133 3.696-2.882 5.689-6.842 5.765-11.454a20.666 20.666 0 0 0-.064-1.948c-.289-3.521-2.547-6.656-5.968-8.372 1.458-.076 2.927.16 4.289.683.026.01.052-.003.079-.002.021.001.038.016.06.012.009-.002.013-.012.021-.014a.22.22 0 0 0 .088-.061c.021-.019.041-.032.054-.056.005-.009.018-.012.021-.022.011-.027-.003-.053-.002-.081.001-.021.017-.04.012-.062C51.56 46.551 49 34.312 59.347 20.272c.231-.313.569-.514.952-.563.369-.045.74.054 1.057.308.562.45.686 1.238.286 1.835-1.699 2.543-3.301 5.404-4.386 8.822l-.001.001c-2.05 6.456-2.257 14.9 2.205 26.953.976 2.584 1.499 5.584 1.516 8.676 0 13.566-11.037 24.602-24.601 24.602zM3.488 79.994l9.723-4.027a25.102 25.102 0 0 0 2.258 4.211l-8.748 5.845a35.714 35.714 0 0 1-3.233-6.029zM1.44 73.282l10.323-2.053a24.863 24.863 0 0 0 1.384 4.574L3.424 79.83a35.273 35.273 0 0 1-1.984-6.548zm-.688-6.888h10.525a25.04 25.04 0 0 0 .455 4.662L1.409 73.11a35.733 35.733 0 0 1-.657-6.716zm15.055-32.468h-4.55c-.818 0-1.483-.665-1.483-1.518 0-.817.665-1.482 1.483-1.482h3.788c.298.953.554 1.952.762 3zm-4.55-3.5c-1.093 0-1.983.889-1.983 2.018 0 1.093.89 1.982 1.983 1.982h4.646c.586 3.254.686 6.982.039 11.333L.75 30.568V13.172l11.527 17.254h-1.02zm4.651 15.547a52.051 52.051 0 0 1-1.233 5.728L.75 42.399V30.816l15.158 15.157zm-4.629 20.245H.75v-6.971l10.857 2.159a.088.088 0 0 0 .034-.172L.75 59.068v-7.506l12.35 5.114c-.092.259-.18.514-.277.776-.988 2.617-1.518 5.646-1.544 8.766zm1.88-9.707L.75 51.373V42.61l13.875 9.27a66.587 66.587 0 0 1-1.466 4.631zm34.781-.451c3.728 1.525 6.227 4.722 6.524 8.342v.001c.053.68.073 1.302.062 1.899-.089 5.47-3.463 10.974-9.834 13.562V34.426h7.42c-1.827 8.083-.389 15.346.928 21.648A11.13 11.13 0 0 0 48 55.58a.25.25 0 1 0-.06.48zm-29.654 8.344v-.002c.297-3.621 2.797-6.817 6.525-8.342a.25.25 0 0 0-.061-.48 11.104 11.104 0 0 0-5.041.495c1.316-6.303 2.753-13.567.926-21.649h7.421v45.438c-6.371-2.588-9.745-8.092-9.834-13.562a20.61 20.61 0 0 1 .064-1.898zm10.271 15.652v-45.63h3.534v46.6a20.37 20.37 0 0 1-3.541-.953c.001-.006.007-.01.007-.017zm3.534-49.13v3h-3.534v-3h3.534zm4.034 0v3h-3.534v-3h3.534zm7.267 0l.088.018.004-.018h.71v3H40.66v-3h2.732zm-3.233 3h-3.534v-3h3.534v3zm-7.568.5h3.534v46.96a24.605 24.605 0 0 1-3.534-.284V34.426zm4.034 46.96v-46.96h3.534v46.676a24.45 24.45 0 0 1-3.534.284zm4.034-46.96h3.534v45.63c0 .007.007.011.007.018a20.281 20.281 0 0 1-3.541.953V34.426zm11.567-.5h-7.532v-3h8.41a34.3 34.3 0 0 0-.878 3zm-8.644-3.5L49.486.75H63.4L51.107 30.426h-7.525zm-.178 0h-6.968V.751h12.872l-5.904 29.675zm-7.143 0h-6.958L23.399.751h12.862v29.675zm-7.136 0h-7.54L9.294.751h13.927l5.904 29.675zm-1.068.5v3h-7.533a34.637 34.637 0 0 0-.877-3h8.41zm31.981 0l.031.021.014-.021h1.41c.817 0 1.482.665 1.482 1.518 0 .817-.665 1.482-1.482 1.482h-4.549a28.51 28.51 0 0 1 .763-3h2.331zm11.963 28.149c-.006 0-.012-.005-.018-.004L61.082 61.24a.087.087 0 0 0-.069.103.088.088 0 0 0 .086.071.088.088 0 0 0 .017-.002l10.886-2.166v6.972h-10.53c-.026-3.121-.557-6.151-1.543-8.764-.091-.246-.173-.484-.26-.727l12.332-5.107v7.455zM59.61 56.562a66.869 66.869 0 0 1-1.492-4.709l13.883-9.277v8.855L59.61 56.562zm12.391-14.197l-13.932 9.309a51.41 51.41 0 0 1-1.233-5.746l15.165-15.163v11.6zm0-11.847L56.804 45.714c-.641-4.332-.539-8.045.045-11.289h4.645c1.093 0 1.982-.889 1.982-2.018 0-1.093-.89-1.982-1.982-1.982h-1.076l11.584-17.337v17.43zm0-17.745L60.207 30.426H57.87c1.064-3.194 2.58-5.891 4.188-8.296.545-.814.377-1.891-.414-2.524a1.86 1.86 0 0 0-1.41-.394 1.893 1.893 0 0 0-1.289.763c-2.657 3.606-4.473 7.093-5.671 10.451h-1.977L63.591.75h8.41v12.023zM9.104.751l12.291 29.674h-1.918c-1.199-3.358-3.013-6.844-5.671-10.451a1.896 1.896 0 0 0-1.288-.762 1.868 1.868 0 0 0-1.436.413 1.862 1.862 0 0 0-.389 2.504c1.607 2.405 3.124 5.102 4.188 8.296h-2.393L.751 12.856V.752L9.104.751zM6.816 86.169l8.748-5.845a25.299 25.299 0 0 0 3.011 3.659l-7.439 7.438a35.78 35.78 0 0 1-4.32-5.252zm54.798 5.254l-7.439-7.439a25.256 25.256 0 0 0 3.015-3.665l8.749 5.846a35.914 35.914 0 0 1-4.325 5.258z"/><path d="M56.208 54.721c-4.098-13.151-2.745-23.513 4.387-33.597a.126.126 0 0 0-.03-.174.124.124 0 0 0-.175.03c-7.181 10.154-8.544 20.583-4.421 33.812.768 2.732 1.296 5.56 1.529 8.174.234 2.624.143 5.082-.272 7.306-1.756 9.424-10.33 16.004-20.849 16.004-10.6 0-19.431-6.93-20.999-16.477-.324-1.973-.388-4.152-.189-6.48.237-2.683.772-5.544 1.591-8.501 4.129-13.245 2.767-23.681-4.418-33.84a.125.125 0 0 0-.204.144c7.135 10.089 8.487 20.458 4.382 33.625-.823 2.975-1.362 5.852-1.6 8.551-.201 2.347-.136 4.548.191 6.542.785 4.775 3.38 9.07 7.309 12.094 3.848 2.961 8.797 4.592 13.937 4.592 10.641 0 19.316-6.665 21.095-16.209.419-2.246.512-4.727.274-7.371-.233-2.632-.766-5.474-1.538-8.225z"/></g></svg>
